<svg xmlns="http://www.w3.org/2000/svg" xmlns:xlink="http://www.w3.org/1999/xlink" width="1920" height="1080" viewBox="0 0 1920 1080">
  <defs>
    <linearGradient id="linear-gradient" x1="0.141" y1="0.772" x2="0.821" y2="0.102" gradientUnits="objectBoundingBox">
      <stop offset="0" stop-color="#00f5ff"/>
      <stop offset="1" stop-color="#8900ff" stop-opacity="0.306"/>
    </linearGradient>
    <linearGradient id="linear-gradient-2" x1="0.061" y1="0.934" x2="1" y2="0.052" gradientUnits="objectBoundingBox">
      <stop offset="0" stop-color="#00f5ff" stop-opacity="0.443"/>
      <stop offset="1" stop-color="navy" stop-opacity="0.639"/>
    </linearGradient>
    <radialGradient id="radial-gradient" cx="0.522" cy="0.631" r="0.499" gradientTransform="matrix(0.071, 0.997, -0.827, 0.059, 1.007, 0.074)" gradientUnits="objectBoundingBox">
      <stop offset="0" stop-color="#00f5ff" stop-opacity="0.306"/>
      <stop offset="1" stop-color="#8900ff" stop-opacity="0.306"/>
    </radialGradient>
    <linearGradient id="linear-gradient-3" x1="0.5" x2="0.5" y2="1" gradientUnits="objectBoundingBox">
      <stop offset="0" stop-color="#f0f" stop-opacity="0.333"/>
      <stop offset="0.064" stop-color="#f700f7" stop-opacity="0.463"/>
      <stop offset="0.212" stop-color="#e400e4" stop-opacity="0.486"/>
      <stop offset="0.374" stop-color="#cf00cf" stop-opacity="0.518"/>
      <stop offset="0.517" stop-color="#bd00bd" stop-opacity="0.467"/>
      <stop offset="0.665" stop-color="#a0a" stop-opacity="0.639"/>
      <stop offset="1" stop-color="#f0f"/>
    </linearGradient>
    <clipPath id="clip-Web_1920_1">
      <rect width="1920" height="1080"/>
    </clipPath>
  </defs>
  <g id="Web_1920_1" data-name="Web 1920 – 1" clip-path="url(#clip-Web_1920_1)">
    <rect width="1920" height="1080" fill="#fff"/>
    <rect id="Rectangle_1" data-name="Rectangle 1" width="1920" height="1161" rx="134" transform="translate(0 153)" stroke="#707070" stroke-width="1" fill="url(#linear-gradient)"/>
    <g id="Ellipse_1" data-name="Ellipse 1" transform="translate(-338 540)" stroke="#707070" stroke-width="1" opacity="0.264" fill="url(#linear-gradient-2)">
      <ellipse cx="826.5" cy="654.5" rx="826.5" ry="654.5" stroke="none"/>
      <ellipse cx="826.5" cy="654.5" rx="826" ry="654" fill="none"/>
    </g>
    <g id="Polygon_1" data-name="Polygon 1" transform="translate(-598.263 748.379) rotate(-68)" fill="url(#radial-gradient)">
      <path d="M 617.5631713867188 1777.500122070312 L 617.0630493164062 1777.500122070312 L 517.4371948242188 1777.500122070312 C 501.6867980957031 1777.500122070312 485.8663024902344 1776.540161132812 470.4153137207031 1774.64697265625 C 455.2660522460938 1772.790771484375 440.1205749511719 1769.994506835938 425.3992004394531 1766.3359375 C 396.623046875 1759.184204101562 368.7210693359375 1748.58349609375 342.4682006835938 1734.828125 C 316.8805541992188 1721.421142578125 292.7726745605469 1704.976806640625 270.8143005371094 1685.951782226562 C 249.1521911621094 1667.18359375 229.5699310302734 1645.896850585938 212.6114349365234 1622.682739257812 C 195.6530609130859 1599.468505859375 181.3283081054688 1574.340942382812 170.0354309082031 1547.997680664062 C 158.5880584716797 1521.294067382812 150.252685546875 1493.327514648438 145.2609405517578 1464.874633789062 C 140.1393127441406 1435.682373046875 138.5245666503906 1405.878051757812 140.4614410400391 1376.289794921875 C 141.4521789550781 1361.153076171875 143.3935546875 1345.874267578125 146.231689453125 1330.878051757812 C 149.1261901855469 1315.582885742188 153.0221862792969 1300.2197265625 157.8114318847656 1285.214965820312 L 207.8743133544922 1128.365966796875 C 211.3253173828125 1117.553588867188 215.2228088378906 1106.848754882812 219.4584350585938 1096.548828125 C 223.6273040771484 1086.4111328125 228.2339324951172 1076.397705078125 233.1505584716797 1066.786254882812 C 237.9913177490234 1057.323120117188 243.2598114013672 1048.000610351562 248.809814453125 1039.07763671875 C 254.2766876220703 1030.28857421875 260.1598205566406 1021.656921386719 266.2959289550781 1013.422668457031 C 290.1328125 981.434326171875 318.8665466308594 953.814208984375 351.6989440917969 931.3291625976562 C 383.1282958984375 909.80517578125 417.9168090820312 893.232421875 455.0979309082031 882.0712890625 C 473.1878051757812 876.6410522460938 491.9071960449219 872.4976806640625 510.7361755371094 869.7560424804688 C 529.4447021484375 867.0321655273438 548.5427856445312 865.6509399414062 567.5000610351562 865.6509399414062 C 586.4573364257812 865.6509399414062 605.555419921875 867.0321655273438 624.263916015625 869.7560424804688 C 643.0929565429688 872.4976806640625 661.8123168945312 876.6410522460938 679.9021606445312 882.0712890625 C 717.0833129882812 893.232421875 751.871826171875 909.80517578125 783.3012084960938 931.3291625976562 C 816.133544921875 953.814208984375 844.8673095703125 981.434326171875 868.7041625976562 1013.422668457031 C 874.84033203125 1021.656921386719 880.7234497070312 1030.28857421875 886.1903076171875 1039.07763671875 C 891.7402954101562 1048.000610351562 897.0087890625 1057.323120117188 901.8495483398438 1066.786254882812 C 906.7661743164062 1076.397705078125 911.372802734375 1086.4111328125 915.5416870117188 1096.548828125 C 919.7772827148438 1106.848754882812 923.6748046875 1117.553588867188 927.1257934570312 1128.365966796875 L 977.1886596679688 1285.214965820312 C 981.9775390625 1300.218505859375 985.8731689453125 1315.580810546875 988.767333984375 1330.875244140625 C 991.6049194335938 1345.87060546875 993.5459594726562 1361.148559570312 994.5363159179688 1376.28466796875 C 996.4722900390625 1405.87158203125 994.8565673828125 1435.674926757812 989.7341918945312 1464.866821289062 C 984.741455078125 1493.318969726562 976.4053344726562 1521.285278320312 964.9572143554688 1547.988891601562 C 953.66357421875 1574.33203125 939.3384399414062 1599.4599609375 922.3796997070312 1622.674560546875 C 905.4205322265625 1645.889404296875 885.8379516601562 1667.17724609375 864.17578125 1685.9462890625 C 842.2171630859375 1704.972290039062 818.1095581054688 1721.41748046875 792.5224609375 1734.8251953125 C 766.2702026367188 1748.581420898438 738.3692016601562 1759.182983398438 709.5945434570312 1766.335083007812 C 694.8740844726562 1769.993896484375 679.7294311523438 1772.790405273438 664.581298828125 1774.646728515625 C 649.1312866210938 1776.5400390625 633.3121948242188 1777.500122070312 617.5631713867188 1777.500122070312 Z" stroke="none"/>
      <path d="M 567.5000610351562 866.15087890625 C 548.5668334960938 866.15087890625 529.492919921875 867.5302734375 510.8081665039062 870.2508544921875 C 492.00341796875 872.98876953125 473.3080444335938 877.126953125 455.24169921875 882.5501708984375 C 418.1100463867188 893.6964111328125 383.3682861328125 910.246826171875 351.9814453125 931.74169921875 C 319.194580078125 954.1954345703125 290.5006713867188 981.7774658203125 266.6968383789062 1013.721435546875 C 260.5692138671875 1021.944580078125 254.6939086914062 1030.564453125 249.2344360351562 1039.341796875 C 243.6917114257812 1048.252807617188 238.4300537109375 1057.563110351562 233.595703125 1067.013916015625 C 228.685302734375 1076.613037109375 224.0845336914062 1086.614013671875 219.9208374023438 1096.738891601562 C 215.6903076171875 1107.026489257812 211.7975463867188 1117.718383789062 208.3505859375 1128.51806640625 L 158.2876586914062 1285.367065429688 C 153.5046997070312 1300.352294921875 149.6137084960938 1315.69580078125 146.7229614257812 1330.970947265625 C 143.888671875 1345.947387695312 141.9498291015625 1361.205810546875 140.9603271484375 1376.322387695312 C 139.0260620117188 1405.870971679688 140.638671875 1435.635009765625 145.7532958984375 1464.788208007812 C 150.7384643554688 1493.203125 159.0626831054688 1521.13232421875 170.4949340820312 1547.800537109375 C 181.77294921875 1574.109130859375 196.0787963867188 1599.203857421875 213.0150756835938 1622.387573242188 C 229.9512939453125 1645.5712890625 249.5079345703125 1666.830200195312 271.1415405273438 1685.57373046875 C 293.07080078125 1704.573486328125 317.1466674804688 1720.99609375 342.7001953125 1734.385009765625 C 368.9176635742188 1748.121948242188 396.7822875976562 1758.70849609375 425.5198364257812 1765.8505859375 C 440.221435546875 1769.50439453125 455.346923828125 1772.296875 470.47607421875 1774.150634765625 C 485.9070434570312 1776.041259765625 501.70703125 1777 517.4371948242188 1777 L 617.5631713867188 1777 C 633.2919311523438 1777 649.0906982421875 1776.041259765625 664.5205688476562 1774.150390625 C 679.6485595703125 1772.29638671875 694.7730712890625 1769.503662109375 709.4740600585938 1765.849609375 C 738.2099609375 1758.707275390625 766.0734252929688 1748.119873046875 792.2904052734375 1734.382202148438 C 817.8433227539062 1720.992309570312 841.9189453125 1704.569091796875 863.8482666015625 1685.568359375 C 885.482177734375 1666.82373046875 905.0390625 1645.56396484375 921.9759521484375 1622.37939453125 C 938.91259765625 1599.1953125 953.2189331054688 1574.100341796875 964.49755859375 1547.791748046875 C 975.9305419921875 1521.12353515625 984.2556762695312 1493.194458007812 989.24169921875 1464.780395507812 C 994.357177734375 1435.627685546875 995.970703125 1405.864379882812 994.0374145507812 1376.317260742188 C 993.04833984375 1361.201416015625 991.1099243164062 1345.943725585938 988.2760620117188 1330.968139648438 C 985.3856811523438 1315.693725585938 981.4950561523438 1300.351318359375 976.71240234375 1285.367065429688 L 926.6495361328125 1128.51806640625 C 923.2025756835938 1117.718383789062 919.309814453125 1107.026489257812 915.079345703125 1096.738891601562 C 910.91552734375 1086.614013671875 906.3148193359375 1076.613037109375 901.4044189453125 1067.013916015625 C 896.570068359375 1057.563110351562 891.3084716796875 1048.252807617188 885.7656860351562 1039.341796875 C 880.30615234375 1030.564453125 874.430908203125 1021.944580078125 868.3033447265625 1013.721435546875 C 844.4994506835938 981.7774658203125 815.8055419921875 954.1954345703125 783.0186767578125 931.74169921875 C 751.6318359375 910.246826171875 716.8900756835938 893.6964111328125 679.7584228515625 882.5501708984375 C 661.6920166015625 877.126953125 642.9967041015625 872.98876953125 624.19189453125 870.2508544921875 C 605.5072021484375 867.5302734375 586.4332885742188 866.15087890625 567.5000610351562 866.15087890625 M 567.5000610351562 865.1510009765625 C 719.5630493164062 865.1510009765625 871.6260986328125 952.838623046875 927.6021728515625 1128.213989257812 L 977.6650390625 1285.06298828125 C 1055.493896484375 1528.90380859375 873.5143432617188 1778 617.5631103515625 1778 C 617.5474853515625 1778 617.5785522460938 1778 617.5629272460938 1778 L 517.4371948242188 1778 C 261.4613037109375 1778 79.50146484375 1528.918701171875 157.3350830078125 1285.06298828125 L 207.39794921875 1128.213989257812 C 263.3740844726562 952.838623046875 415.4370727539062 865.1510009765625 567.5000610351562 865.1510009765625 Z" stroke="none" fill="#707070"/>
    </g>
    <g id="Rectangle_2" data-name="Rectangle 2" transform="matrix(0.875, -0.485, 0.485, 0.875, 950.624, 916.01)" stroke="#707070" stroke-width="1" fill="url(#linear-gradient-3)">
      <rect width="1157" height="715" rx="357.5" stroke="none"/>
      <rect x="0.5" y="0.5" width="1156" height="714" rx="357" fill="none"/>
    </g>
    <g id="Component_1_1" data-name="Component 1 – 1">
      <g id="Rectangle_3" data-name="Rectangle 3" fill="#fff" stroke="#707070" stroke-width="1">
        <rect width="153" height="153" rx="46" stroke="none"/>
        <rect x="0.5" y="0.5" width="152" height="152" rx="45.5" fill="none"/>
      </g>
    </g>
    <g id="Rectangle_4" data-name="Rectangle 4" transform="translate(1630 44)" fill="#fff" stroke="#707070" stroke-width="1">
      <rect width="264" height="65" rx="32.5" stroke="none"/>
      <rect x="0.5" y="0.5" width="263" height="64" rx="32" fill="none"/>
    </g>
    <g id="Component_2_1" data-name="Component 2 – 1" transform="translate(1228.511 37.921)">
      <g id="Rectangle_5" data-name="Rectangle 5" transform="translate(0 0)" fill="#fff" stroke="#707070" stroke-linecap="round" stroke-width="1">
        <rect width="172" height="77" rx="38.5" stroke="none"/>
        <rect x="0.5" y="0.5" width="171" height="76" rx="38" fill="none"/>
      </g>
    </g>
    <g id="Component_2_2" data-name="Component 2 – 2" transform="translate(1425.511 37.921)">
      <g id="Rectangle_5-2" data-name="Rectangle 5" transform="translate(0 0)" fill="#fff" stroke="#707070" stroke-linecap="round" stroke-width="1">
        <rect width="172" height="77" rx="38.5" stroke="none"/>
        <rect x="0.5" y="0.5" width="171" height="76" rx="38" fill="none"/>
      </g>
    </g>
    <text id="Login" transform="translate(1266 91)" fill="#707070" font-size="39" font-family="HelveticaNeue, Helvetica Neue"><tspan x="0" y="0">Login</tspan></text>
    <text id="Sign_Up" data-name="Sign Up" transform="translate(1445 90)" fill="#707070" font-size="37" font-family="HelveticaNeue, Helvetica Neue"><tspan x="0" y="0">Sign Up</tspan></text>
    <text id="Search" transform="translate(1663 88)" fill="#707070" font-size="30" font-family="HelveticaNeue, Helvetica Neue"><tspan x="0" y="0">Search</tspan></text>
    <g id="Rectangle_6" data-name="Rectangle 6" transform="translate(153 283)" fill="#fff" stroke="#707070" stroke-width="1">
      <rect width="484" height="340" rx="90" stroke="none"/>
      <rect x="0.5" y="0.5" width="483" height="339" rx="89.5" fill="none"/>
    </g>
    <text id="Press_HERE_to_start" data-name="Press HERE to start" transform="translate(201 470)" fill="#707070" font-size="44" font-family="HelveticaNeue, Helvetica Neue"><tspan x="0" y="0">Press HERE to start</tspan></text>
    <g id="Rectangle_7" data-name="Rectangle 7" transform="translate(804 215)" fill="#fff" stroke="#707070" stroke-width="1">
      <rect width="1022" height="650" rx="49" stroke="none"/>
      <rect x="0.5" y="0.5" width="1021" height="649" rx="48.5" fill="none"/>
    </g>
    <g id="Polygon_2" data-name="Polygon 2" transform="matrix(0.035, -0.999, 0.999, 0.035, 840.039, 581.183)" fill="#fff">
      <path d="M 84.13624572753906 73.5 L 0.8637528419494629 73.5 L 42.49997711181641 1.003946542739868 L 84.13624572753906 73.5 Z" stroke="none"/>
      <path d="M 42.49997711181641 2.007919311523438 L 1.727523803710938 73 L 83.27247619628906 73 L 42.49997711181641 2.007919311523438 M 42.49997711181641 0 L 85 74 L 0 74 L 42.49997711181641 0 Z" stroke="none" fill="#707070"/>
    </g>
    <g id="Polygon_3" data-name="Polygon 3" transform="translate(1799.5 497.5) rotate(90)" fill="#fff">
      <path d="M 84.13624572753906 73.5 L 0.863753080368042 73.5 L 42.5 1.003946542739868 L 84.13624572753906 73.5 Z" stroke="none"/>
      <path d="M 42.5 2.007919311523438 L 1.727523803710938 73 L 83.27247619628906 73 L 42.5 2.007919311523438 M 42.5 0 L 85 74 L 0 74 L 42.5 0 Z" stroke="none" fill="#707070"/>
    </g>
    <g id="Rectangle_8" data-name="Rectangle 8" transform="translate(77 734)" fill="#fff" stroke="#707070" stroke-width="1">
      <rect width="667" height="319" stroke="none"/>
      <rect x="0.5" y="0.5" width="666" height="318" fill="none"/>
    </g>
    <text id="About_Us" data-name="About Us" transform="matrix(0.914, -0.407, 0.407, 0.914, 94.838, 855.807)" fill="#707070" font-size="45" font-family="HelveticaNeue, Helvetica Neue"><tspan x="0" y="0">About Us</tspan></text>
  </g>
</svg>
